<?xml version="1.0" encoding="utf-8"?>
<!-- Generator: Adobe Illustrator 16.0.0, SVG Export Plug-In . SVG Version: 6.00 Build 0)  -->
<!DOCTYPE svg PUBLIC "-//W3C//DTD SVG 1.1//EN" "http://www.w3.org/Graphics/SVG/1.1/DTD/svg11.dtd">
<svg version="1.1" id="Cash" xmlns="http://www.w3.org/2000/svg" xmlns:xlink="http://www.w3.org/1999/xlink" x="0px" y="0px"
	 width="144.083px" height="144px" viewBox="0 0 144.083 144" enable-background="new 0 0 144.083 144" xml:space="preserve">
<path style="fill: white" d="M104.061,45.484h-54.79c-5.159,0-9.355,3.838-9.355,8.556v0.75c-5.11,0.053-9.25,3.866-9.25,8.551V89.96
	c0,4.718,4.197,8.556,9.355,8.556h54.79c5.158,0,9.355-3.838,9.355-8.556v-0.75c5.109-0.052,9.25-3.865,9.25-8.551V54.04
	C113.417,49.322,109.219,45.484,104.061,45.484z M98.167,89.96c0,1.386-1.536,2.556-3.355,2.556h-54.79
	c-1.819,0-3.355-1.17-3.355-2.556V63.341c0-1.385,1.537-2.556,3.355-2.556h54.79c1.819,0,3.355,1.171,3.355,2.556V89.96z
	 M107.417,80.659c0,1.358-1.479,2.503-3.25,2.548V63.341c0-4.718-4.197-8.556-9.355-8.556H45.916V54.04
	c0-1.385,1.537-2.556,3.355-2.556h54.79c1.819,0,3.355,1.171,3.355,2.556V80.659z"/>
<path style="fill: white" d="M67.524,74.403c-2.525-0.301-3.807-0.661-3.807-1.797c0-1.76,2.548-1.95,3.644-1.95c1.613,0,3.397,0.78,3.978,1.739
	l0.231,0.383l3.685-1.705l-0.225-0.459c-1.297-2.649-3.596-3.449-5.371-3.774v-2.344h-4.31v2.332
	c-3.796,0.591-6.047,2.729-6.047,5.778c0,5.017,4.706,5.543,7.817,5.892c2.828,0.334,4.146,1.013,4.146,2.136
	c0,2.172-3.068,2.341-4.009,2.341c-2.11,0-4.142-1.045-4.726-2.432l-0.195-0.461l-3.998,1.694l0.197,0.461
	c1.125,2.634,3.536,4.295,6.814,4.709v2.527h4.31V86.82c3.146-0.388,6.177-2.4,6.177-6.187
	C75.836,75.428,70.835,74.812,67.524,74.403z"/>
</svg>
