<?xml version="1.0" encoding="utf-8"?>
<!-- Generator: Adobe Illustrator 16.0.0, SVG Export Plug-In . SVG Version: 6.00 Build 0)  -->
<!DOCTYPE svg PUBLIC "-//W3C//DTD SVG 1.1//EN" "http://www.w3.org/Graphics/SVG/1.1/DTD/svg11.dtd">
<svg version="1.1" id="Certified" xmlns="http://www.w3.org/2000/svg" xmlns:xlink="http://www.w3.org/1999/xlink" x="0px" y="0px"
	 width="144.083px" height="144px" viewBox="0 0 144.083 144" enable-background="new 0 0 144.083 144" xml:space="preserve">
<path style="fill: white" d="M97.2,81.37V43.265L75.905,19.461H39.736c-6.365,0-11.544,5.179-11.544,11.544v63.009c0,6.365,5.179,11.543,11.544,11.543
	h32.948c1.34,10.687,10.473,18.982,21.516,18.982c11.961,0,21.691-9.73,21.691-21.691C115.891,91.906,107.745,82.836,97.2,81.37z
	 M77.563,30.314l9.928,11.096h-9.928V30.314z M34.192,94.014V31.005c0-3.057,2.487-5.544,5.544-5.544h31.827V47.41H91.2v33.96
	c-2.506,0.349-4.873,1.125-7.029,2.255V83.51H41.222v6h35.892c-2.24,2.862-3.781,6.296-4.355,10.047H39.736
	C36.679,99.557,34.192,97.07,34.192,94.014z M94.2,118.539c-8.652,0-15.689-7.039-15.689-15.691c0-8.651,7.037-15.689,15.689-15.689
	s15.691,7.038,15.691,15.689C109.891,111.5,102.852,118.539,94.2,118.539z"/>
<polygon style="fill: white" points="101.532,93.739 91.829,103.635 86.805,98.8 82.643,103.122 91.95,112.08 105.815,97.94 "/>
<rect style="fill: white" x="41.222" y="69.177" width="42.948" height="6"/>
<rect style="fill: white" x="41.222" y="54.786" width="42.948" height="6"/>
</svg>
