<?xml version="1.0" encoding="utf-8"?>
<!-- Generator: Adobe Illustrator 16.0.0, SVG Export Plug-In . SVG Version: 6.00 Build 0)  -->
<!DOCTYPE svg PUBLIC "-//W3C//DTD SVG 1.1//EN" "http://www.w3.org/Graphics/SVG/1.1/DTD/svg11.dtd">
<svg version="1.1" id="Certificate" xmlns="http://www.w3.org/2000/svg" xmlns:xlink="http://www.w3.org/1999/xlink" x="0px"
	 y="0px" width="144.083px" height="144px" viewBox="0 0 144.083 144" enable-background="new 0 0 144.083 144"
	 xml:space="preserve">
<path style="fill: white" d="M85.25,28.952H49.081c-6.365,0-11.544,5.179-11.544,11.544v63.008c0,6.365,5.179,11.544,11.544,11.544h45.921
	c6.365,0,11.543-5.179,11.543-11.544V52.755L85.25,28.952z M86.909,39.805l9.928,11.096h-9.928V39.805z M95.002,109.048H49.081
	c-3.057,0-5.544-2.487-5.544-5.544V40.496c0-3.057,2.487-5.544,5.544-5.544h31.828v21.949h19.637v46.603
	C100.545,106.561,98.059,109.048,95.002,109.048z"/>
<rect style="fill: white" x="65.567" y="92.75" width="27.947" height="6"/>
<rect style="fill: white" x="65.567" y="78.417" width="27.947" height="6"/>
<rect style="fill: white" x="65.567" y="64.027" width="27.947" height="6"/>
<polygon style="fill: white" points="53.403,67.066 51.428,65.166 48.654,68.047 53.485,72.696 60.469,65.574 57.614,62.773 "/>
<polygon style="fill: white" points="53.403,81.457 51.428,79.555 48.654,82.438 53.485,87.086 60.469,79.964 57.614,77.163 "/>
<polygon style="fill: white" points="53.403,95.789 51.428,93.887 48.654,96.77 53.485,101.418 60.469,94.296 57.614,91.495 "/>
</svg>
