<?xml version="1.0" encoding="utf-8"?>
<!-- Generator: Adobe Illustrator 16.0.0, SVG Export Plug-In . SVG Version: 6.00 Build 0)  -->
<!DOCTYPE svg PUBLIC "-//W3C//DTD SVG 1.1//EN" "http://www.w3.org/Graphics/SVG/1.1/DTD/svg11.dtd">
<svg version="1.1" id="Credit_x5F_Card" xmlns="http://www.w3.org/2000/svg" xmlns:xlink="http://www.w3.org/1999/xlink" x="0px"
	 y="0px" width="144.083px" height="144px" viewBox="0 0 144.083 144" enable-background="new 0 0 144.083 144"
	 xml:space="preserve">
<path style="fill: white" d="M100.473,46.321H43.609c-5.867,0-10.641,4.342-10.641,9.679v32.001c0,5.336,4.773,9.678,10.641,9.678h56.864
	c5.867,0,10.641-4.342,10.641-9.678V56C111.114,50.663,106.34,46.321,100.473,46.321z M43.609,52.321h56.864
	c2.559,0,4.641,1.65,4.641,3.679v4.978H38.969V56C38.969,53.972,41.05,52.321,43.609,52.321z M100.473,91.679H43.609
	c-2.559,0-4.641-1.65-4.641-3.678V66.978h66.145v21.023C105.114,90.028,103.032,91.679,100.473,91.679z"/>
<rect style="fill: white" x="44.416" y="78" width="11" height="6"/>
<rect style="fill: white" x="57.196" y="78" width="11" height="6"/>
</svg>
