<?xml version="1.0" encoding="utf-8"?>
<!-- Generator: Adobe Illustrator 16.0.0, SVG Export Plug-In . SVG Version: 6.00 Build 0)  -->
<!DOCTYPE svg PUBLIC "-//W3C//DTD SVG 1.1//EN" "http://www.w3.org/Graphics/SVG/1.1/DTD/svg11.dtd">
<svg version="1.1" id="Currency" xmlns="http://www.w3.org/2000/svg" xmlns:xlink="http://www.w3.org/1999/xlink" x="0px" y="0px"
	 width="144.083px" height="144px" viewBox="0 0 144.083 144" enable-background="new 0 0 144.083 144" xml:space="preserve">
<path style="fill: white" d="M87.585,67.237c-0.348,0-0.692,0.01-1.035,0.026V45.13c0-7.714-13.015-11.75-25.872-11.75
	c-12.857,0-25.873,4.036-25.873,11.75v40h0.023c0.478,7.432,13.235,11.32,25.85,11.32c2.166,0,4.329-0.125,6.44-0.354
	c2.967,8.447,11.019,14.521,20.467,14.521c11.961,0,21.691-9.73,21.691-21.691S99.546,67.237,87.585,67.237z M60.679,39.38
	c12.908,0,19.872,4.081,19.872,5.75s-6.964,5.75-19.872,5.75c-12.909,0-19.873-4.081-19.873-5.75S47.77,39.38,60.679,39.38z
	 M40.806,52.918c4.993,2.617,12.457,3.962,19.873,3.962c7.416,0,14.878-1.346,19.872-3.962v5.62c0,1.669-6.964,5.75-19.872,5.75
	c-12.909,0-19.873-4.081-19.873-5.75V52.918z M40.806,66.325c4.993,2.617,12.457,3.962,19.873,3.962
	c7.416,0,14.878-1.346,19.872-3.962v2.089c-4.275,1.471-7.95,4.24-10.55,7.837c-2.642,0.49-5.743,0.811-9.322,0.811
	c-12.909,0-19.873-4.08-19.873-5.75V66.325z M60.679,90.451c-12.909,0-19.873-4.082-19.873-5.75V79.1
	c4.993,2.617,12.457,3.963,19.873,3.963c2.057,0,4.111-0.115,6.121-0.32c-0.585,1.961-0.904,4.037-0.904,6.186
	c0,0.428,0.016,0.85,0.04,1.271C64.308,90.354,62.566,90.451,60.679,90.451z M87.585,104.619c-8.651,0-15.69-7.039-15.69-15.691
	s7.039-15.691,15.69-15.691c8.652,0,15.691,7.039,15.691,15.691S96.238,104.619,87.585,104.619z"/>
<path style="fill: white" d="M87.215,86.369c-2.525-0.301-3.808-0.66-3.808-1.797c0-1.76,2.549-1.949,3.645-1.949c1.612,0,3.396,0.779,3.977,1.738
	l0.231,0.383l3.685-1.705L94.72,82.58c-1.295-2.648-3.594-3.447-5.369-3.773v-2.344h-4.311v2.33
	c-3.796,0.592-6.047,2.73-6.047,5.779c0,5.018,4.707,5.543,7.818,5.891c2.827,0.336,4.145,1.016,4.145,2.137
	c0,2.172-3.067,2.34-4.008,2.34c-2.11,0-4.143-1.045-4.727-2.43l-0.194-0.463l-3.998,1.695l0.197,0.461
	c1.125,2.635,3.535,4.295,6.813,4.709v2.527h4.311v-2.654c3.146-0.387,6.176-2.398,6.176-6.186
	C95.527,87.393,90.526,86.777,87.215,86.369z"/>
</svg>
