<?xml version="1.0" encoding="utf-8"?>
<!-- Generator: Adobe Illustrator 16.0.0, SVG Export Plug-In . SVG Version: 6.00 Build 0)  -->
<!DOCTYPE svg PUBLIC "-//W3C//DTD SVG 1.1//EN" "http://www.w3.org/Graphics/SVG/1.1/DTD/svg11.dtd">
<svg version="1.1" id="Money_x5F_Bag" xmlns="http://www.w3.org/2000/svg" xmlns:xlink="http://www.w3.org/1999/xlink" x="0px"
	 y="0px" width="144.083px" height="144px" viewBox="0 0 144.083 144" enable-background="new 0 0 144.083 144"
	 xml:space="preserve">
<path style="fill: white" d="M107.86,106.351c-0.061-0.244-6.002-24.567-6.84-32.668c-1.26-12.188-8.152-21.919-17.68-26.247l3.83-8.884v-0.619
	c0-4.41-3.588-7.997-7.998-7.997H64.079c-4.411,0-7.999,3.587-7.999,7.997v0.619l3.969,9.205
	c-9.169,4.478-15.758,14.034-16.987,25.926c-0.837,8.101-6.78,32.424-6.84,32.668c-0.388,1.587,0.564,3.193,2.143,3.613
	c0.629,0.167,15.618,4.101,33.677,4.101c17.806,0,33.025-3.931,33.664-4.098C107.291,109.552,108.25,107.942,107.86,106.351z
	 M62.14,37.45c0.217-0.869,1.004-1.515,1.939-1.515h15.093c0.936,0,1.723,0.646,1.939,1.515l-3.497,8.112
	c-1.802-0.372-3.664-0.567-5.573-0.567c-2.179,0-4.295,0.26-6.33,0.741L62.14,37.45z M72.042,108.064
	c-12.766,0-24.164-2.116-29.281-3.23c1.639-6.856,5.563-23.691,6.27-30.534c1.117-10.802,7.229-19.015,15.693-22.032l-5.629,6.954
	l4.664,3.775l7.974-9.851l7.973,9.851l4.664-3.775l-5.883-7.267c8.92,2.745,15.41,11.172,16.564,22.345
	c0.708,6.841,4.629,23.667,6.269,30.527C96.163,105.941,84.676,108.064,72.042,108.064z"/>
<path style="fill: white" d="M72.492,78.693c-2.897-0.344-5.114-0.748-5.114-2.502c0-2.439,3.439-2.703,4.918-2.703c2.195,0,4.537,1.031,5.332,2.348
	l0.231,0.385l4.552-2.107l-0.225-0.459c-1.698-3.467-4.737-4.47-7.039-4.874v-3.04h-5.328v3.027
	c-4.961,0.732-7.906,3.485-7.906,7.424c0,6.424,5.831,7.076,10.086,7.551c3.791,0.449,5.556,1.385,5.556,2.946
	c0,2.983-4.129,3.215-5.394,3.215c-2.817,0-5.535-1.407-6.322-3.273l-0.195-0.462l-4.944,2.097l0.197,0.461
	c1.465,3.428,4.623,5.575,8.923,6.081v3.287h5.328v-3.452c4.095-0.458,8.078-3.043,8.078-7.953
	C83.225,80.02,77.022,79.254,72.492,78.693z"/>
</svg>
