<?xml version="1.0" encoding="utf-8"?>
<!-- Generator: Adobe Illustrator 16.0.0, SVG Export Plug-In . SVG Version: 6.00 Build 0)  -->
<!DOCTYPE svg PUBLIC "-//W3C//DTD SVG 1.1//EN" "http://www.w3.org/Graphics/SVG/1.1/DTD/svg11.dtd">
<svg version="1.1" id="Piggy_x5F_bank" xmlns="http://www.w3.org/2000/svg" xmlns:xlink="http://www.w3.org/1999/xlink" x="0px"
	 y="0px" width="144.083px" height="144px" viewBox="0 0 144.083 144" enable-background="new 0 0 144.083 144"
	 xml:space="preserve">
<path style="fill: white" d="M111.106,57.143h-2.387c-2.549-5.819-6.588-10.858-11.824-14.751l3.265-11.177c0.319-1.094-0.009-2.274-0.846-3.046
	c-0.839-0.773-2.042-1.006-3.104-0.597l-18.571,7.095c-2.229-0.315-4.456-0.474-6.632-0.474c-15.004,0-27.617,6.734-34.674,17.262
	c-5.307-0.463-6.312-3.938-6.42-4.396c-0.336-1.602-1.899-2.64-3.51-2.327c-1.626,0.317-2.688,1.893-2.37,3.519
	c0.518,2.655,3.11,7.26,9.249,8.761c-1.954,4.472-3.023,9.425-3.023,14.7c0,10.474,4.414,20.198,12.222,27.163
	c-3.885,4.123-3.812,10.638,0.221,14.67c1.989,1.99,4.635,3.086,7.449,3.086s5.459-1.096,7.449-3.086l5.053-5.053
	c6.241,1.121,12.894,0.953,18.953-0.455l5.508,5.509c1.99,1.989,4.636,3.085,7.449,3.085c2.813,0,5.458-1.096,7.449-3.086
	c4.105-4.107,4.105-10.79-0.001-14.898l-1.083-1.082c3.295-3.262,5.939-7.095,7.781-11.284h2.397c4.963,0,9-4.038,9-9V66.143
	C120.106,61.181,116.069,57.143,111.106,57.143z M114.106,77.277c0,1.654-1.346,3-3,3h-4.418c-1.255,0-2.377,0.78-2.813,1.957
	c-1.845,4.979-5.029,9.445-9.209,12.915c-0.649,0.539-1.042,1.327-1.081,2.17s0.279,1.664,0.876,2.261l3.307,3.307
	c1.768,1.768,1.768,4.646,0.001,6.412c-0.856,0.857-1.995,1.329-3.206,1.329s-2.351-0.472-3.207-1.328l-6.713-6.714
	c-0.57-0.57-1.336-0.879-2.121-0.879c-0.266,0-0.533,0.035-0.796,0.107c-3.405,0.938-7.012,1.413-10.718,1.413
	c-2.959,0-5.888-0.311-8.706-0.924c-1-0.218-2.038,0.088-2.759,0.811l-6.186,6.186c-0.856,0.856-1.995,1.328-3.207,1.328
	c-1.211,0-2.35-0.472-3.207-1.328c-1.768-1.769-1.768-4.645,0-6.413l2.123-2.123c0.617-0.616,0.935-1.471,0.871-2.341
	c-0.063-0.87-0.503-1.669-1.203-2.188c-7.929-5.888-12.476-14.826-12.476-24.525c0-17.968,14.939-31.518,34.75-31.518
	c2.124,0,4.311,0.175,6.499,0.521c0.518,0.083,1.049,0.027,1.538-0.161l13.663-5.219l-2.174,7.44
	c-0.369,1.264,0.129,2.622,1.229,3.346c5.663,3.733,9.854,8.943,12.12,15.065c0.436,1.177,1.559,1.959,2.813,1.959h4.41
	c1.654,0,3,1.346,3,3V77.277z"/>
<circle style="fill: white" cx="89.695" cy="63.126" r="4.167"/>
<rect style="fill: white" x="62.279" y="45.709" width="17.5" height="6"/>
</svg>
